<svg xmlns="http://www.w3.org/2000/svg" width="2000" height="1113" fill="none"><path fill="#000" d="M1393.2 616.168c43.91 0 79.25 13.173 106.04 39.52 27.23 26.346 40.84 65.427 40.84 117.242v202.868h-102.75v-187.06c0-28.103-6.15-48.961-18.45-62.574-12.29-14.051-30.08-21.077-53.35-21.077-25.91 0-46.54 8.124-61.91 24.371-15.37 15.808-23.06 39.52-23.06 71.136v175.204h-102.75V621.437h98.14v41.496c13.62-14.93 30.52-26.347 50.72-34.251 20.2-8.343 42.37-12.514 66.53-12.514ZM2000 487.07v488.728h-98.14v-40.837c-25.47 30.738-62.35 46.106-110.66 46.106-33.37 0-63.67-7.464-90.89-22.394-26.79-14.93-47.86-36.227-63.23-63.891-15.37-27.663-23.06-59.718-23.06-96.165 0-36.446 7.69-68.501 23.06-96.164 15.37-27.664 36.44-48.961 63.23-63.891 27.22-14.93 57.52-22.394 90.89-22.394 45.23 0 80.58 14.271 106.05 42.813V487.07H2000Zm-191.01 409.688c25.91 0 47.42-8.782 64.55-26.346 17.12-18.004 25.68-41.935 25.68-71.795 0-29.859-8.56-53.571-25.68-71.135-17.13-18.004-38.64-27.005-64.55-27.005-26.35 0-48.09 9.001-65.21 27.005-17.13 17.564-25.69 41.276-25.69 71.135 0 29.86 8.56 53.791 25.69 71.795 17.12 17.564 38.86 26.346 65.21 26.346ZM845.48 157.933v195.623c0 52.254-14.271 92.652-42.813 121.194s-69.16 42.813-121.853 42.813c-25.468 0-48.082-3.952-67.842-11.856-19.321-7.904-35.568-20.638-48.741-38.202-13.173 17.564-29.42 30.298-48.741 38.202-19.321 7.904-42.155 11.856-68.501 11.856-53.132 0-93.75-14.271-121.853-42.813-28.103-28.542-42.155-68.94-42.155-121.194V157.933h102.752v187.719c0 29.42 5.05 51.156 15.149 65.208 10.1 13.612 25.908 20.418 47.424 20.418 21.955 0 38.203-7.025 48.741-21.077 10.539-14.051 15.808-35.568 15.808-64.549V157.933h102.752v187.719c0 28.981 5.269 50.498 15.808 64.549 10.538 14.052 26.785 21.077 48.741 21.077 21.516 0 37.324-6.806 47.423-20.418 10.1-14.052 15.15-35.788 15.15-65.208V157.933H845.48Zm4.879 816.06V778.37c0-52.254-14.271-92.652-42.813-121.194-28.542-28.543-69.16-42.814-121.853-42.814-25.468 0-48.082 3.952-67.842 11.856-19.321 7.904-35.568 20.638-48.741 38.203-13.174-17.565-29.421-30.299-48.741-38.203-19.321-7.904-42.155-11.856-68.501-11.856-53.133 0-93.75 14.271-121.853 42.814-28.103 28.542-42.155 68.94-42.155 121.194v195.623h102.752V786.274c0-29.421 5.05-51.157 15.149-65.208 10.1-13.612 25.908-20.419 47.424-20.419 21.955 0 38.202 7.026 48.741 21.078 10.539 14.051 15.808 35.567 15.808 64.549v187.719h102.752V786.274c0-28.982 5.269-50.498 15.807-64.549 10.539-14.052 26.786-21.078 48.742-21.078 21.516 0 37.324 6.807 47.423 20.419 10.1 14.051 15.15 35.787 15.15 65.208v187.719h102.751ZM215.383 490.29c-10.099 7.465-22.614 13.173-37.544 17.125-14.49 3.513-29.64 5.269-45.448 5.269-42.593 0-75.307-10.758-98.14-32.274C11.417 458.893 0 427.278 0 385.562V74.672h102.752v86.286h87.602v79.04h-87.602v144.247c0 14.93 3.732 26.566 11.197 34.909 7.465 7.904 18.223 11.856 32.274 11.856 15.808 0 29.86-4.391 42.155-13.173l27.005 72.453ZM1394.56 131.733c43.91 0 79.26 13.173 106.05 39.52 27.22 26.346 40.83 65.427 40.83 117.242v202.868h-102.75v-187.06c0-28.103-6.15-48.961-18.44-62.573-12.3-14.052-30.08-21.078-53.35-21.078-25.91 0-46.55 8.124-61.92 24.371-15.37 15.808-23.05 39.52-23.05 71.136v175.204h-102.75V137.002h98.14v41.496c13.61-14.93 30.52-26.347 50.72-34.251 20.2-8.343 42.37-12.514 66.52-12.514Z"/><path fill="#FF7400" d="M940.419 260.922c3.985-37.395 35.535-65.762 73.141-65.762 37.38 0 68.82 28.034 73.08 65.17l26.67 232.448H915.713l24.706-231.856ZM1086.48 73.185c0 40.419-32.77 73.185-73.19 73.185-40.416 0-73.182-32.766-73.182-73.185C940.108 32.766 972.874 0 1013.29 0c40.42 0 73.19 32.766 73.19 73.185ZM940.138 853.927c3.985 37.396 35.535 65.763 73.142 65.763 37.38 0 68.82-28.035 73.08-65.171l26.67-232.448H915.432l24.706 231.856Zm146.342 185.293c0-40.414-32.77-73.18-73.19-73.18-40.416 0-73.182 32.766-73.182 73.18 0 40.42 32.766 73.19 73.182 73.19 40.42 0 73.19-32.77 73.19-73.19Z"/></svg>